<svg width="24" height="25" viewBox="0 0 24 25" fill="none" xmlns="http://www.w3.org/2000/svg">
<path d="M17.1436 0C17.6955 0.000339002 18.1435 0.447962 18.1436 1V3.03418H20L20.2061 3.03906C22.3194 3.1463 24 4.89415 24 7.03418V20.1865C23.9999 22.3265 22.3194 24.0744 20.2061 24.1816L20 24.1865H4C1.79093 24.1865 0.000107329 22.3956 0 20.1865V7.03418C1.63337e-06 4.82504 1.79086 3.03418 4 3.03418H5.85742V1C5.85747 0.447846 6.30529 0.000150782 6.85742 0C7.40945 0.000263759 7.85738 0.447916 7.85742 1V3.03418H16.1436V1C16.1436 0.447753 16.5913 0 17.1436 0ZM2 11.7627V20.1865C2.00011 21.291 2.8955 22.1865 4 22.1865H20C21.1045 22.1865 21.9999 21.291 22 20.1865V11.7627H2ZM4 5.03418C2.89543 5.03418 2 5.92961 2 7.03418V9.7627H22V7.03418C22 5.99854 21.2128 5.14719 20.2041 5.04492L20 5.03418H18.1436V5.88184C18.1433 6.43369 17.6954 6.8815 17.1436 6.88184C16.5914 6.88184 16.1438 6.4339 16.1436 5.88184V5.03418H7.85742V5.88184C7.85716 6.43374 7.40932 6.88157 6.85742 6.88184C6.30543 6.88169 5.85768 6.43381 5.85742 5.88184V5.03418H4Z" fill="#05BAAE"/>
</svg>
