<svg width="24" height="22" viewBox="0 0 24 22" fill="none" xmlns="http://www.w3.org/2000/svg">
<path d="M12.0003 21.0001C16.7979 21.0001 20.6871 17.049 20.6871 12.1751C20.6871 7.30119 16.7979 3.3501 12.0003 3.3501C7.2027 3.3501 3.31348 7.30119 3.31348 12.1751C3.31348 17.049 7.2027 21.0001 12.0003 21.0001Z" stroke="#05BAAE" stroke-width="2"/>
<path d="M4.51096 1.00024C3.66909 1.2293 2.90142 1.67951 2.28515 2.30559C1.66887 2.93166 1.22572 3.71154 1.00024 4.56681M19.4895 1.00024C20.3314 1.2293 21.0991 1.67951 21.7153 2.30559C22.3316 2.93166 22.7748 3.71154 23.0002 4.56681M12.0002 7.13236V11.86C12.0002 12.034 12.1392 12.1752 12.3105 12.1752H15.7232" stroke="#05BAAE" stroke-width="2" stroke-linecap="round"/>
</svg>
