<svg width="24" height="20" viewBox="0 0 24 20" fill="none" xmlns="http://www.w3.org/2000/svg">
<path d="M13.5996 9.59961C16.6876 9.59961 19.2002 12.1122 19.2002 15.2002V16.7998C19.2002 18.1278 18.1278 19.2002 16.7998 19.2002H7.2002C5.8722 19.2002 4.7998 18.1278 4.7998 16.7998V15.2002C4.7998 12.1122 7.31239 9.59961 10.4004 9.59961H13.5996ZM10.4004 11.2002C9.33957 11.2002 8.32143 11.621 7.57129 12.3711C6.82114 13.1212 6.40039 14.1393 6.40039 15.2002V16.7998C6.40039 17.2478 6.7522 17.5996 7.2002 17.5996H16.7998C17.2478 17.5996 17.5996 17.2478 17.5996 16.7998V15.2002C17.5996 14.1393 17.1789 13.1212 16.4287 12.3711C15.6786 11.621 14.6604 11.2002 13.5996 11.2002H10.4004ZM7.2002 0C7.64804 0.000102218 7.9999 0.351963 8 0.799805C8 1.24774 7.6481 1.59951 7.2002 1.59961C5.8722 1.59961 4.7998 2.672 4.7998 4C4.7998 5.328 5.8722 6.40039 7.2002 6.40039C7.6481 6.40049 8 6.75226 8 7.2002C7.9999 7.64804 7.64804 7.9999 7.2002 8H5.59961C4.53888 8.0001 3.52154 8.42182 2.77148 9.17188C2.02146 9.922 1.59961 10.9392 1.59961 12C1.59961 12.448 1.95239 12.7998 2.40039 12.7998C2.84807 12.8 3.19999 13.1519 3.2002 13.5996C3.2002 14.0475 2.8482 14.4002 2.40039 14.4004C1.07239 14.4004 0 13.328 0 12C8.09447e-08 9.408 1.76016 7.2318 4.16016 6.5918C3.56818 5.8878 3.2002 4.99198 3.2002 4C3.2002 2.93932 3.62119 1.92198 4.37109 1.17188C5.12124 0.421729 6.13933 0 7.2002 0ZM16.7998 0C17.8607 0 18.8788 0.421729 19.6289 1.17188C20.3788 1.92198 20.7998 2.93932 20.7998 4C20.7998 4.99198 20.4478 5.8878 19.8398 6.5918C22.2238 7.2318 24 9.408 24 12C24 13.328 22.9276 14.4004 21.5996 14.4004C21.1518 14.4002 20.7998 14.0475 20.7998 13.5996C20.8 13.1519 21.1519 12.8 21.5996 12.7998C22.0476 12.7998 22.4004 12.448 22.4004 12C22.4004 10.9392 21.9785 9.922 21.2285 9.17188C20.4785 8.42182 19.4611 8.0001 18.4004 8H16.7998C16.352 7.9999 16.0001 7.64804 16 7.2002C16 6.75226 16.3519 6.40049 16.7998 6.40039C18.1278 6.40039 19.2002 5.328 19.2002 4C19.2002 2.672 18.1278 1.59961 16.7998 1.59961C16.3519 1.59951 16 1.24774 16 0.799805C16.0001 0.351963 16.352 0.000102406 16.7998 0ZM12 0C13.0609 0 14.078 0.42173 14.8281 1.17188C15.5783 1.92202 16 2.93913 16 4C16 5.06087 15.5783 6.07798 14.8281 6.82812C14.078 7.57827 13.0609 8 12 8C10.9391 8 9.92202 7.57827 9.17188 6.82812C8.42173 6.07798 8 5.06087 8 4C8 2.93913 8.42173 1.92202 9.17188 1.17188C9.92202 0.421729 10.9391 1.57854e-08 12 0ZM12 1.59961C10.672 1.59961 9.59961 2.672 9.59961 4C9.59961 5.328 10.672 6.40039 12 6.40039C13.328 6.40039 14.4004 5.328 14.4004 4C14.4004 2.672 13.328 1.59961 12 1.59961Z" fill="#05BAAE"/>
</svg>
